<?xml version="1.0" standalone="no"?><!DOCTYPE svg PUBLIC "-//W3C//DTD SVG 1.1//EN" "http://www.w3.org/Graphics/SVG/1.1/DTD/svg11.dtd"><svg t="1644761730607" class="icon" viewBox="0 0 1024 1024" version="1.1" xmlns="http://www.w3.org/2000/svg" p-id="1427" width="128" height="128" xmlns:xlink="http://www.w3.org/1999/xlink"><defs><style type="text/css">@font-face { font-family: element-icons; src: url("chrome-extension://moombeodfomdpjnpocobemoiaemednkg/fonts/element-icons.woff") format("woff"), url("chrome-extension://moombeodfomdpjnpocobemoiaemednkg/fonts/element-icons.ttf ") format("truetype"); }
</style></defs><path d="M929.246938 550.420089c0-230.522263-186.805503-352.043233-417.28064-352.043233S94.717074 319.897826 94.717074 550.420089a416.479507 416.479507 0 0 0 21.59919 131.951415h-0.20421s133.67935 422.433029 395.854244 285.470602c262.159186 136.962427 395.854244-285.517728 395.854244-285.517728h-0.204211a416.479507 416.479507 0 0 0 21.59919-131.951414" fill="#E34361" p-id="1428"></path><path d="M929.246938 550.420089c0-145.00518-74.002752-246.81198-186.20858-302.451493 67.546558 58.875465 109.221213 142.790281 109.221213 251.100401a416.793677 416.793677 0 0 1-21.59919 131.951415h0.204211S726.607266 959.83077 521.909779 942.928422a263.038862 263.038862 0 0 1-29.610526 34.056032c6.487611-2.780405 13.006639-5.655061 19.682753-9.142348 262.159186 136.962427 395.854244-285.517728 395.854244-285.517728h-0.20421a416.479507 416.479507 0 0 0 21.59919-131.951414" fill="#BC395B" p-id="1429"></path><path d="M511.982006 453.435799c-102.403723 0-145.994815-53.597408-147.801293-55.890849a28.73085 28.73085 0 1 1 45.036275-35.658299c0.895385 1.036761 29.846153 34.087449 102.74931 34.087449s101.838217-32.987854 103.047771-34.448744a28.966477 28.966477 0 0 1 40.276599-3.817166A28.573765 28.573765 0 0 1 659.783299 397.466408c-1.806478 2.293441-45.381862 55.890849-147.801293 55.890849" fill="#454849" p-id="1430"></path><path d="M511.982006 939.111257a28.950769 28.950769 0 0 1 13.305101 3.251659c52.686315 27.552712 101.225585 31.417004 148.319674 12.017004 125.825099-51.932307 196.953195-251.336028 205.907041-277.820562a26.704453 26.704453 0 0 1 0.895384-3.298785 387.999993 387.999993 0 0 0 20.106882-122.824775c0-238.659267-209.300077-323.312383-388.518373-323.312383S123.447924 311.776531 123.447924 550.420089a387.999993 387.999993 0 0 0 20.106882 122.824775 28.181052 28.181052 0 0 1 0.895385 3.298786c9.01668 26.578785 80.458946 226.123883 205.969875 277.883396 47.125505 19.337166 95.570525 15.425749 148.256839-12.06413a28.950769 28.950769 0 0 1 13.305101-3.251659m102.105262 84.825909c-33.459109 0-67.546558-8.011336-102.105262-24.081133-63.11676 29.343481-124.756921 31.951093-183.553843 7.618623-158.655868-65.488744-236.475785-306.315784-239.696028-316.494893A26.374574 26.374574 0 0 1 87.993835 688.07369a445.713029 445.713029 0 0 1-21.991902-137.653601C66.001933 322.662522 245.220229 169.693132 511.982006 169.693132s445.980073 153.016516 445.980073 380.774083a446.027199 446.027199 0 0 1-21.991902 137.637892 27.599838 27.599838 0 0 1-0.769717 2.93749c-3.1417 10.226235-81.040161 251.006149-239.696028 316.494893a211.766312 211.766312 0 0 1-81.417164 16.46251" fill="#454849" p-id="1431"></path><path d="M511.934881 453.404382a28.652307 28.652307 0 0 1-27.411336-20.23255c-2.529069-8.168421-60.006477-201.665745 94.486638-347.88048a28.73085 28.73085 0 1 1 39.475465 41.784615C490.414233 248.235641 537.382654 409.49912 539.456176 416.31661a28.793684 28.793684 0 0 1-19.070121 35.862509 29.846153 29.846153 0 0 1-8.451174 1.25668" fill="#454849" p-id="1432"></path><path d="M110.347033 51.879369c316.620561-100.000322 301.681776 156.959349 301.681777 156.95935S210.315939 368.594181 110.347033 51.879369" fill="#3BB777" p-id="1433"></path><path d="M110.347033 51.879369l301.681777 156.95935S210.315939 368.594181 110.347033 51.879369" fill="#229857" p-id="1434"></path><path d="M147.262013 71.05945c29.846153 80.914493 69.321618 129.422346 117.405342 144.376839 49.057651 15.347206 97.235626-8.671093 118.410686-21.662024-1.57085-24.772307-9.629312-78.024128-50.267206-109.425423-39.868177-30.804372-102.105261-35.265586-185.564531-13.273684m150.581698 206.818134a168.17522 168.17522 0 0 1-49.638866-7.382995C175.49019 248.235641 119.882094 177.547383 82.967115 60.519045a28.746558 28.746558 0 0 1 18.724534-36.129554C218.704278-12.525488 308.43124-7.498767 368.422009 39.218317c77.788501 60.571983 72.526153 166.761455 72.259108 171.222669a28.683724 28.683724 0 0 1-10.854575 20.829473c-2.874656 2.277733-59.692307 46.528582-131.951415 46.528582" fill="#454849" p-id="1435"></path><path d="M231.019744 782.089073c-72.526153-72.541861-59.189635-162.865746-58.561295-166.777163a21.536356 21.536356 0 0 1 42.554332 6.676113c-0.502672 3.471579-10.744615 77.615707 51.963723 134.873196 9.503644 7.430121 9.425101 21.677732 1.319515 30.458785a21.520647 21.520647 0 0 1-30.41166 1.319514q-3.56583-3.267368-6.864615-6.534736M205.886141 481.082762a28.181052 28.181052 0 1 1-39.695384 3.283077 28.165344 28.165344 0 0 1 39.695384-3.283077" fill="#FEFEFE" p-id="1436"></path></svg>